PathFileType	4	(X/Y/Z)	C:/Users/beibeiliu/ov580/test_trc/User1\sequence.37_training_dense_left.trc
DataRate	CameraRate	NumFrames	NumMarkers	Units	OrigDataRate	OrigDataStartFrame	OrigNumFrames
120	120	15	19	mm	120	213	243
Frame#	Time	ThumbCMC			ThumbMCP			ThumbIP			ThumbTip			IndexMCP			IndexPIP			IndexTip			MiddleMCP			MiddlePIP			MiddleTip			RingMCP			RingPIP			RingTip			PinkyMCP			PinkyPIP			PinkyTip			BackHand1			BackHand2			BackHand3	
		X0	Y0	Z0	X1	Y1	Z1	X2	Y2	Z2	X3	Y3	Z3	X4	Y4	Z4	X5	Y5	Z5	X6	Y6	Z6	X7	Y7	Z7	X8	Y8	Z8	X9	Y9	Z9	X10	Y10	Z10	X11	Y11	Z11	X12	Y12	Z12	X13	Y13	Z13	X14	Y14	Z14	X15	Y15	Z15	X16	Y16	Z16	X17	Y17	Z17	X18	Y18	Z18	
212	1.76667	-97.6823	-3.73372	30.1731	-75.1277	-5.19537	7.96093	-67.7541	-10.66	-21.0068	-55.8397	-12.7206	-38.6441	-86.4631	-42.1627	-40.7723	-56.509	-51.3606	-35.5745	-46.7419	-44.8515	-1.14379	-92.4522	-64.5028	-34.2276	-58.8013	-70.6643	-20.7292	-62.0041	-50.2321	13.3644	-88.8842	-85.1231	-17.8782	-57.2417	-76.7358	-2.12126	-59.1473	-61.6461	23.1859	-95.5277	-97.999	1.43578	-68.2415	-85.8055	10.4934	-75.3449	-62.1875	29.8484	-137.016	-67.137	21.2653	-143.483	-55.0107	55.0169	-132.76	-30.1322	24.9813	
213	1.775	-99.3969	-8.22315	33.9952	-74.4866	-6.26854	7.40271	-69.0457	-12.3203	-19.6318	-55.722	-11.5183	-43.1173	-86.2362	-44.8444	-40.9043	-56.6349	-51.315	-34.9001	-48.8535	-49.4419	-1.91188	-88.3998	-68.5237	-34.545	-58.9916	-69.3484	-23.0396	-62.178	-54.5962	14.1045	-89.5642	-86.3196	-16.7677	-57.6421	-78.279	-2.821	-58.3373	-60.4778	22.5511	-93.0679	-97.4964	1.42197	-68.9672	-83.0102	10.6403	-76.6931	-57.7157	30.807	-137.433	-67.9326	20.7449	-141.953	-55.9619	54.3402	-132.659	-25.8988	27.0787	
214	1.78333	-98.9427	-6.84556	32.8034	-76.4985	-9.1722	4.99913	-68.1043	-13.0012	-20.6013	-55.636	-14.0454	-38.3724	-86.8216	-42.6485	-41.3762	-58.2173	-53.3798	-33.5266	-48.516	-45.2785	0.132653	-92.3499	-66.1972	-33.9629	-56.6478	-64.4884	-21.0216	-62.075	-49.1997	13.9489	-89.88	-86.3708	-15.9087	-59.228	-81.0288	-3.13691	-61.2488	-61.4843	26.3864	-93.5898	-98.3454	1.45307	-68.4382	-83.5011	13.3206	-78.083	-57.9023	32.8329	-138.657	-65.0534	17.664	-141.971	-53.1373	52.7981	-135.609	-27.5763	25.9404	
215	1.79167	-98.3523	-9.21772	31.1095	-75.6693	-9.1764	6.64297	-66.0872	-12.7503	-19.4159	-53.8914	-14.2777	-36.3803	-90.9671	-42.6003	-38.4147	-59.2138	-54.0349	-34.8918	-49.0047	-48.448	-2.61121	-89.6265	-69.0275	-33.4492	-59.1324	-67.6165	-22.5779	-63.1118	-49.5068	16.194	-86.1488	-84.5521	-18.2835	-59.8227	-81.9785	-0.910488	-60.6148	-61.0774	24.5556	-92.0255	-99.981	1.52565	-69.334	-85.6959	11.263	-78.2555	-58.229	31.3952	-137.259	-66.31	19.0018	-143.973	-50.4321	53.3647	-134.883	-26.7835	22.8653	
216	1.8	-98.1831	-8.19536	35.377	-75.0141	-10.6221	5.34472	-64.6927	-11.5827	-17.3453	-53.4611	-15.7036	-38.8378	-89.6373	-42.3175	-39.9586	-56.3082	-53.917	-32.4153	-47.5741	-47.2516	-2.05952	-91.9389	-64.3636	-34.2316	-56.6173	-66.4275	-20.1765	-64.4272	-52.8744	16.7794	-91.7904	-83.8658	-17.1399	-60.7362	-80.7102	-0.02105	-64.1157	-60.1266	26.6184	-94.252	-97.4094	-1.27111	-70.8766	-86.7486	10.6655	-79.7278	-59.2469	29.9891	-138.63	-61.8599	16.7622	-143.821	-54.4663	51.3892	-133.817	-27.1152	24.3799	
217	1.80833	-97.1696	-5.40841	30.0135	-74.6806	-8.72958	5.49956	-64.1114	-11.3352	-15.293	-53.1963	-17.4754	-37.1183	-87.7768	-41.7608	-40.646	-59.6479	-54.1748	-35.3858	-48.178	-44.6917	-2.52319	-88.3017	-67.2181	-35.0993	-57.9384	-67.3296	-21.0903	-61.17	-52.8971	16.0486	-88.8901	-84.3398	-17.6175	-62.1294	-82.6331	-0.492604	-66.1657	-59.2631	27.2384	-97.8395	-97.4715	0.375493	-71.1007	-89.7726	13.0774	-82.5973	-61.6933	31.5293	-139.611	-61.3571	16.4031	-143.481	-52.4643	52.602	-134.042	-26.7688	24.3241	
218	1.81667	-98.3835	-5.65045	31.3802	-75.6427	-5.70667	9.33849	-66.1883	-8.62176	-16.896	-52.2521	-15.4247	-38.2258	-90.0469	-41.6644	-39.2334	-60.4605	-53.7964	-34.513	-49.5139	-43.6465	-1.35715	-90.8751	-68.4737	-34.6265	-60.4416	-70.3132	-21.6201	-60.0683	-53.3867	16.0468	-93.2322	-84.9806	-17.157	-61.1136	-79.394	-1.30486	-65.6237	-64.265	25.4875	-100.131	-99.4226	1.19741	-72.7934	-85.4057	10.8141	-81.5254	-60.7968	31.3483	-139.988	-61.1929	17.8491	-146.428	-53.2017	51.7784	-136.23	-25.3691	27.1682	
219	1.825	-99.8809	-5.26006	34.2568	-76.9989	-1.21328	10.3964	-68.1342	-5.26852	-19.2135	-54.5392	-14.3921	-35.3394	-91.0292	-40.0926	-38.8197	-60.4462	-54.029	-33.3167	-52.151	-41.3019	2.34398	-93.6395	-65.9613	-32.9003	-60.9566	-72.0207	-21.9311	-57.4822	-56.914	15.0834	-90.1846	-84.9176	-18.0599	-63.3455	-79.9469	-4.84936	-65.2437	-63.4386	26.898	-99.6134	-95.3704	-0.781107	-72.9689	-90.1279	10.6504	-79.4891	-63.5803	28.3317	-139.091	-62.199	18.4281	-147.171	-50.2726	51.5894	-135.362	-26.4884	25.3665	
220	1.83333	-100.506	-2.25148	36.2628	-79.2458	1.49312	11.1518	-67.9849	-0.120483	-15.0705	-57.3733	-15.5823	-36.4271	-90.7611	-40.7854	-37.5545	-58.5215	-51.392	-31.2948	-50.86	-42.8426	-0.138835	-94.7693	-62.6005	-33.5482	-59.293	-68.2768	-24.5793	-54.3399	-54.178	14.0246	-91.36	-85.3721	-19.2199	-63.9157	-83.706	-3.78807	-63.8523	-65.9828	23.746	-96.8791	-99.7429	-0.901636	-72.9065	-89.9625	8.47442	-80.1663	-62.205	28.1643	-139.809	-64.7775	18.5113	-144.344	-49.9077	50.3341	-134.673	-23.8384	25.001	
221	1.84167	-101.238	0.252083	37.0486	-80.2287	4.1129	9.27142	-70.1372	-0.645569	-18.1067	-57.4746	-16.0105	-37.6216	-92.3213	-41.0477	-36.7926	-61.2674	-52.3134	-33.1761	-52.0621	-43.1761	0.769155	-94.5751	-62.7324	-35.3089	-60.2631	-70.8927	-23.5649	-53.955	-56.3189	14.1672	-93.95	-82.0461	-20.0926	-63.6183	-82.4622	-5.02894	-63.4462	-66.3367	25.7368	-98.3428	-95.959	-2.30653	-73.1752	-89.6175	8.77954	-77.4443	-64.2573	31.0422	-139.164	-61.4492	17.9528	-148.001	-51.1147	56.788	-134.824	-21.8719	24.6858	
222	1.85	-101.669	-1.39538	37.3651	-81.0188	3.93311	8.87849	-71.8112	-0.500304	-18.6359	-59.2559	-19.1892	-38.468	-93.2578	-38.3257	-37.1157	-61.7764	-50.5312	-35.0788	-49.9172	-44.0816	-2.37179	-97.5166	-62.588	-33.6417	-59.9935	-69.1128	-24.435	-53.5682	-57.5922	13.4146	-93.709	-81.9906	-20.6636	-64.0566	-83.7483	-6.71388	-61.4185	-69.7175	23.898	-103.655	-96.2234	0.79077	-72.7159	-89.0877	10.9275	-76.6518	-63.6944	31.8789	-140.692	-62.9262	19.6222	-145.306	-49.3722	54.9851	-135.09	-24.8104	30.2468	
223	1.85833	-101.119	0.282231	38.0011	-79.9886	4.32628	15.0788	-72.899	-2.73352	-12.4621	-58.42	-15.9673	-35.8604	-91.9826	-38.7749	-37.1683	-62.3764	-53.4833	-33.5227	-51.1144	-46.6541	0.678772	-96.0268	-66.0217	-32.278	-61.3894	-69.3608	-26.4269	-51.0036	-56.2484	12.2113	-95.7821	-80.8139	-20.0721	-63.2883	-82.128	-5.11072	-60.0289	-68.4521	21.2307	-99.4322	-95.7123	-1.82499	-74.4637	-86.8657	8.0145	-75.6226	-63.3402	30.7635	-141.496	-58.2255	19.1918	-148.662	-52.5321	53.7465	-133.855	-25.0685	29.8113	
224	1.86667	-100.243	-2.0637	38.244	-81.3698	0.845343	11.635	-68.2666	0.728712	-13.2907	-56.7485	-16.8173	-34.4723	-90.1772	-38.4071	-37.5515	-59.4975	-52.8301	-31.7425	-50.5532	-43.6612	1.07842	-93.5789	-65.8353	-33.0899	-59.4332	-71.6691	-22.411	-50.5698	-55.4458	11.9857	-97.9681	-81.6831	-17.5117	-62.7064	-84.271	-3.93311	-59.7092	-67.5166	22.4605	-100.357	-98.6344	-0.551904	-73.2939	-90.6128	9.5715	-75.2189	-61.9975	30.468	-141.789	-60.781	21.6912	-148.521	-49.5784	55.7286	-133.535	-21.3793	27.4511	
225	1.875	-99.7514	0.655155	38.025	-79.0672	6.6484	12.5581	-70.4983	-2.31856	-9.71543	-57.6773	-20.577	-35.7781	-88.0732	-40.679	-38.3825	-57.3214	-49.3226	-31.7399	-52.6067	-47.2133	1.18653	-96.1292	-61.7071	-33.0634	-61.0362	-72.0385	-23.6246	-51.7206	-56.9973	10.382	-92.6881	-84.17	-18.5906	-61.6794	-79.4625	-6.3286	-59.9322	-67.6041	22.9545	-98.751	-94.6759	-1.41224	-73.6637	-88.0285	9.44718	-74.7267	-61.9388	31.5347	-141.768	-59.4828	21.1158	-145.085	-49.1516	57.2226	-132.468	-21.8603	28.4257	
226	1.88333	-99.6748	0.777183	36.4362	-79.5468	1.44498	12.1846	-67.5125	-0.79692	-16.2631	-57.3632	-22.0144	-35.4382	-89.3747	-38.5279	-36.4143	-57.6928	-50.2381	-30.9809	-51.419	-43.4506	1.59022	-93.6423	-62.7209	-33.7091	-58.1427	-68.9801	-22.9865	-52.0595	-54.2083	11.546	-91.5439	-80.1721	-19.3047	-62.2846	-81.4511	-4.01149	-60.8477	-62.8329	25.0931	-97.1367	-97.7012	-0.24349	-71.9713	-88.5468	11.814	-75.2139	-61.7702	27.6603	-140.584	-63.3492	19.1008	-145.132	-48.0035	53.5529	-133.833	-23.5172	30.251	
